<svg xmlns="http://www.w3.org/2000/svg" viewBox="0 0 540 260" fill="none" role="img" aria-label="A pair of glasses with three lenses">
  <!-- frame: temple arms, lenses, nose bridges -->
  <g stroke="#d9a13f" stroke-width="6" stroke-linecap="round" stroke-linejoin="round">
    <path d="M92 133 L46 115 Q31 110 28 96" />
    <path d="M448 133 L494 115 Q509 110 512 96" />
    <circle cx="148" cy="140" r="58" fill="#faf6ef" fill-opacity="0.06" />
    <circle cx="270" cy="140" r="58" fill="#d98fb0" fill-opacity="0.13" />
    <circle cx="392" cy="140" r="58" fill="#d9a13f" fill-opacity="0.14" />
    <path d="M192 103 Q209 89 226 103" />
    <path d="M314 103 Q331 89 348 103" />
  </g>
  <!-- hinge studs -->
  <circle cx="92" cy="133" r="4.5" fill="#d9a13f" />
  <circle cx="448" cy="133" r="4.5" fill="#d9a13f" />
  <!-- faint lens shine -->
  <g stroke="#faf6ef" stroke-width="3" stroke-linecap="round" fill="none">
    <path d="M120 118 Q140 104 168 112" stroke-opacity="0.34" />
    <path d="M242 118 Q262 104 290 112" stroke-opacity="0.28" />
    <path d="M364 118 Q384 104 412 112" stroke-opacity="0.30" />
  </g>
</svg>
